<svg xmlns="http://www.w3.org/2000/svg" xmlns:xlink="http://www.w3.org/1999/xlink" viewBox="0 0 56.5 56.5"><defs><style>.cls-1,.cls-7{fill:none;}.cls-2{isolation:isolate;}.cls-3{fill:#d6d8d9;}.cls-4{fill:#919395;opacity:0.61;mix-blend-mode:multiply;}.cls-5{fill:#de5959;}.cls-6{fill:#606060;}.cls-7{stroke:#de5959;stroke-miterlimit:10;}.cls-8{clip-path:url(#clip-path);}</style><clipPath id="clip-path"><polygon id="SVGID" class="cls-1" points="44.11 31.95 45.41 31.95 45.41 31.18 45.01 30.99 44.31 30.99 44.06 31.59 44.11 31.95"/></clipPath></defs><title>Recurso 2</title><g class="cls-2"><g id="Capa_2" data-name="Capa 2"><g id="Capa_1-2" data-name="Capa 1"><circle class="cls-3" cx="28.25" cy="28.25" r="28.25"/><path class="cls-4" d="M50.64,24.94H40v-6a1,1,0,0,0-1,1v4.82a1,1,0,0,0,1,1h9.72a1,1,0,0,0,1-1"/><path class="cls-5" d="M50.51,18.57H40.26a1,1,0,0,0-1,1v4.69a1,1,0,0,0,1,1H50.51a1,1,0,0,0,1-1V19.6A1,1,0,0,0,50.51,18.57ZM43,23.93h-.57V22.15h-.81v1.78h-.58V19.84h.58V21.6h.81V19.84H43Zm2.21-3.54h-.55v3.54h-.57V20.39h-.56v-.55h1.68Zm2.87,3.54h-.55V21.15L47,22.94h0l-.6-1.79v2.78h-.55V19.84h.59l.57,1.74.58-1.74h.59Zm2.11,0H48.81V19.84h.58v3.55h.83Z"/><polygon class="cls-6" points="25.09 30 20.44 25.35 25.09 20.71 23.27 18.89 16.81 25.35 23.27 31.81 25.09 30"/><polygon class="cls-6" points="31.59 31.81 38.05 25.35 31.59 18.89 29.77 20.71 34.42 25.35 29.77 30 31.59 31.81"/><path class="cls-5" d="M12.71,23.25H10.94A.24.24,0,0,1,10.7,23V18.64a.35.35,0,0,0-.35-.35h-5a.35.35,0,0,0-.35.35v5a.36.36,0,0,0,.35.36H9.65a.23.23,0,0,1,.24.23v1.81a.35.35,0,0,0,.35.35h2.47a.35.35,0,0,0,.35-.35V23.6A.35.35,0,0,0,12.71,23.25Z"/><rect class="cls-5" x="11.8" y="19.84" width="2.51" height="2.51" rx="0.35"/><path class="cls-5" d="M49.69,40.25,46.26,37a.9.9,0,0,0-.62-.25h-34A.9.9,0,0,0,11,37L7.61,40.25a1.15,1.15,0,0,0,.61,2H49.07A1.15,1.15,0,0,0,49.69,40.25ZM14.6,41.58H13.08a.18.18,0,0,1-.17-.17.18.18,0,0,1,.17-.18H14.6a.18.18,0,0,1,.17.18A.18.18,0,0,1,14.6,41.58Zm.84.06a.24.24,0,1,1,.23-.23A.23.23,0,0,1,15.44,41.64Zm.67,0a.24.24,0,0,1,0-.47.24.24,0,1,1,0,.47Zm17.26-.56H23.7a.31.31,0,0,1-.28-.42l.08-.19.18-.45a.3.3,0,0,1,.28-.19h9a.3.3,0,0,1,.26.15l.36.63A.3.3,0,0,1,33.37,41.08ZM10.06,39.13a.12.12,0,0,1-.08-.21l1.51-1.41a.32.32,0,0,1,.19-.07h26.7l1.13,1.72Zm37,0H40.31l-1.19-1.72h6.25a.85.85,0,0,1,.57.22l1.23,1.13A.22.22,0,0,1,47,39.17Z"/><path class="cls-5" d="M23.89,40.49a19.14,19.14,0,0,1,4.56-.5,18.67,18.67,0,0,1,4.57.5,18.19,18.19,0,0,1-4.57.5A18.64,18.64,0,0,1,23.89,40.49Z"/><line class="cls-7" x1="28.43" y1="40.49" x2="28.43" y2="41.09"/><path class="cls-5" d="M13.53,16.38H43.7V18.1H46V15.24a1,1,0,0,0-1-1H12.27a1,1,0,0,0-1,1v3.14h2.23Z"/><rect class="cls-5" x="43.7" y="26.11" width="2.29" height="4.19"/><path class="cls-5" d="M43.18,34.29v-.11H13.53V26.89H11.3v8.49a1,1,0,0,0,1,1H45a1,1,0,0,0,1-1V34.29Z"/><path class="cls-4" d="M42,34.65V30.33a.62.62,0,0,0-.43.59v3.82a.61.61,0,0,0,.61.62h4.58a.62.62,0,0,0,.61-.62v-.09Z"/><path class="cls-5" d="M47,30H42.44a.61.61,0,0,0-.61.62V34.4a.61.61,0,0,0,.61.61H47a.61.61,0,0,0,.61-.61V30.58A.62.62,0,0,0,47,30ZM46,33.7a.36.36,0,0,1-.36.36H43.83a.36.36,0,0,1-.35-.36V32.3a.35.35,0,0,1,.35-.35h.09v-.24a.78.78,0,0,1,.78-.79h0a.79.79,0,0,1,.79.79V32h.08a.36.36,0,0,1,.36.35Z"/><path class="cls-5" d="M45.07,33a.35.35,0,0,0-.34-.35.35.35,0,0,0-.35.35.32.32,0,0,0,.16.28v.29h.38v-.29A.33.33,0,0,0,45.07,33Z"/><g class="cls-8"><circle class="cls-5" cx="44.73" cy="31.77" r="0.58"/></g></g></g></g></svg>