<svg xmlns="http://www.w3.org/2000/svg" xmlns:xlink="http://www.w3.org/1999/xlink" viewBox="0 0 554.24 115.28"><defs><style>.cls-1,.cls-6{fill:none;}.cls-2{isolation:isolate;}.cls-3{fill:#939598;opacity:0.61;mix-blend-mode:multiply;}.cls-4{fill:#ff5959;}.cls-5{fill:#fff;}.cls-6{stroke:#ff5959;stroke-miterlimit:10;}.cls-7{clip-path:url(#clip-path);}</style><clipPath id="clip-path"><polygon class="cls-1" points="161.21 72.86 166.54 72.86 166.54 69.69 164.89 68.9 162.02 68.9 161 71.38 161.21 72.86"/></clipPath></defs><title>Recurso 1</title><g class="cls-2"><g id="Capa_2" data-name="Capa 2"><g id="Capa_1-2" data-name="Capa 1"><path class="cls-3" d="M188.09,44h-44V19.21a4.2,4.2,0,0,0-4.19,4.19V43.26a4.2,4.2,0,0,0,4.19,4.19h40a4.2,4.2,0,0,0,4.19-4.19"/><path class="cls-4" d="M187.56,17.76H145.33a4.22,4.22,0,0,0-4.21,4.2V41.29a4.23,4.23,0,0,0,4.21,4.21h42.23a4.22,4.22,0,0,0,4.21-4.21V22A4.21,4.21,0,0,0,187.56,17.76Zm-30.8,22.06H154.4V32.48h-3.34v7.34h-2.38V23h2.38v7.24h3.34V23h2.36Zm9.09-14.6h-2.26v14.6h-2.36V25.22H159V23h6.9Zm11.84,14.6H175.4V28.34l-2.5,7.41h-.07l-2.5-7.41V39.82h-2.26V23h2.43l2.38,7.14L175.26,23h2.43Zm8.68,0h-5.82V23h2.38v14.6h3.44Z"/><polygon class="cls-5" points="82.86 64.8 63.73 45.67 82.86 26.54 75.38 19.05 48.76 45.67 75.38 72.28 82.86 64.8"/><polygon class="cls-5" points="109.65 72.28 136.26 45.67 109.65 19.05 102.16 26.54 121.29 45.67 102.16 64.8 109.65 72.28"/><path class="cls-5" d="M216.47,90.58q-4-6.43-4-17.07a82.15,82.15,0,0,1,5-26.94,73.34,73.34,0,0,1,13.27-24q8.31-9.69,17.59-9.69A18.39,18.39,0,0,1,255.13,14a8.29,8.29,0,0,1,3.61,2.47,4.25,4.25,0,0,1,1,2.29,1.78,1.78,0,0,1-.64,1.29,2.18,2.18,0,0,1-1.55.62,2.52,2.52,0,0,1-1.74-.79,11.25,11.25,0,0,0-1.74-1.34,4.94,4.94,0,0,0-2.58-.56q-5.4,0-12.3,7.9T227.49,46.4a72.94,72.94,0,0,0-4.83,26.21,42.2,42.2,0,0,0,1.74,12.26q1.74,5.77,7.15,5.77a14,14,0,0,0,10-4.42,66.68,66.68,0,0,0,8.64-10.59c1.28-1.86,2.06-2.8,2.32-2.8s.51.3.51.9q0,2.68-3.28,8.46A37.15,37.15,0,0,1,241,92.49,19.24,19.24,0,0,1,228.46,97Q220.46,97,216.47,90.58Z"/><path class="cls-5" d="M254.74,85a23.25,23.25,0,0,1-.12-2.8,43.66,43.66,0,0,1,2.7-14A40.62,40.62,0,0,1,263.9,55.7a36.35,36.35,0,0,1,3.86-4.14,4.52,4.52,0,0,1,2.84-1.35,2.92,2.92,0,0,1,1.93.79,8.06,8.06,0,0,1,2.32-3.14,4.6,4.6,0,0,1,2.84-1.12c1.71,0,3.22,1.08,4.51,3.25s1.93,5.23,1.93,9.18A40.32,40.32,0,0,1,283,69a31.57,31.57,0,0,1-2.84,7.61q3.62-1.45,9.54-6.83l1.29.34c0,.67-.82,1.79-2.45,3.36A44.66,44.66,0,0,1,283,78a16.15,16.15,0,0,1-5,2.57,22.62,22.62,0,0,1-7.21,7.84,15.45,15.45,0,0,1-8.51,3Q256.16,91.42,254.74,85Zm8,3.81q1.54,0,3.93-2.58t5.6-6.83q-3.74-2.68-3.73-8.4a27.46,27.46,0,0,1,.77-6.32c.51-2.21.81-3.49.9-3.87l.9-4.25q.39-1.8-1.29,1.28t-3.8,7.9c-1.41,3.21-2.43,5.71-3,7.5q-1.15,3.81-1.86,6.67a19.3,19.3,0,0,0-.71,4.42,6.9,6.9,0,0,0,1.28,3.92A1.21,1.21,0,0,0,262.74,88.85Zm14.75-25.37a39,39,0,0,0,1.1-8.68,10.37,10.37,0,0,0-.65-4.25Q276.14,53,274.72,59a47.6,47.6,0,0,0-1.42,10.92c0,2.62.35,4.48,1,5.6Q276.4,68.25,277.49,63.48Z"/><path class="cls-5" d="M293.34,90.7A6.92,6.92,0,0,1,291,87.56a17.49,17.49,0,0,1-1.09-7,66.52,66.52,0,0,1,1.8-12.77,53.67,53.67,0,0,1,5.67-15.22q3.87-6.84,9.93-6.84a12.26,12.26,0,0,1,6.57,2.13,183.57,183.57,0,0,1,5.67-19.09c1.55-4,2.64-6.33,3.29-7a2.69,2.69,0,0,1,1.87-1,3.14,3.14,0,0,1,2.38,1.29,4.45,4.45,0,0,1,1.1,3l-.91,2.58Q315.45,59,315.45,78.43a21.47,21.47,0,0,0,.9,7.06A62.76,62.76,0,0,0,323.44,73c.68-1.42,1.22-2.45,1.61-3.08s.79-1,1.22-1l.52.11c.17,0,.26.22.26.67q0,2.46-3.23,10.3l-1.29,3.14a32.91,32.91,0,0,1-3.22,6.66,4.55,4.55,0,0,1-3.86,1.51q-7.09,0-7.09-9.4c0-1.57.08-3.7.26-6.39A118.24,118.24,0,0,1,302,86.67q-3.23,4.76-6.18,4.75h-.78A4.32,4.32,0,0,1,293.34,90.7ZM302,79.44a101.09,101.09,0,0,0,5.74-10.52,47.31,47.31,0,0,0,3.8-11,12.45,12.45,0,0,0,.52-3.14l.77-3.91a17.37,17.37,0,0,1-1.61-.85,4.13,4.13,0,0,0-1.87-.61q-3.09,0-5.93,6a66.29,66.29,0,0,0-4.57,13.66,57.42,57.42,0,0,0-1.74,11.37,22.23,22.23,0,0,0,.19,3.14c.13.89.23,1.53.32,1.9A36,36,0,0,0,302,79.44Z"/><path class="cls-5" d="M330.65,89q-2.44-2.42-2.45-8.79a37,37,0,0,1,3.61-15.85,47.53,47.53,0,0,1,8.31-12.6q4.71-4.92,7.16-4.93t4.7,2.69a8,8,0,0,1,2.38,5.26q0,2-2.32,7.68a39,39,0,0,1-6.12,10.24q-3.8,4.61-8.31,4.6a5.75,5.75,0,0,1-2.32-.45,19.16,19.16,0,0,1-.32,2.4,20.13,20.13,0,0,0-.32,3.53c0,2.39.47,3.85,1.41,4.37h.26q1.68-.11,5.22-3.53c2.36-2.27,5.22-5.32,8.57-9.12s5.33-5.72,5.67-5.72a1.52,1.52,0,0,1,1,.34,1.11,1.11,0,0,1,.39.89q0,.57-4.45,6.28a93.61,93.61,0,0,1-9.4,10.41q-5,4.71-7.93,4.7A7,7,0,0,1,330.65,89Zm6.44-17.42a8.7,8.7,0,0,0,4.26-2.35A18.69,18.69,0,0,0,345.73,63a24.06,24.06,0,0,0,2.06-9.74L344,56.82q-3.67,3.47-7.41,14.9Z"/><path class="cls-5" d="M359,91.31A10.55,10.55,0,0,1,356.94,90a4.84,4.84,0,0,1-1.67-2v-.33a1.8,1.8,0,0,1,.25-.9c.26-1.19.69-3.36,1.29-6.49s1.25-7,1.94-11.65Q361.2,52.23,361.2,47c0-1.2.38-1.8,1.16-1.8a2,2,0,0,1,1.54.79,11.2,11.2,0,0,1,1.87,2.46,4.33,4.33,0,0,1,.71,2.58l-2.32,17a126.43,126.43,0,0,1,8.5-15.34q4.38-6.27,7.61-6.28a2.89,2.89,0,0,1,2.06.57,11.71,11.71,0,0,1,1.93,1.9,3.13,3.13,0,0,1,.39,1.9,20.9,20.9,0,0,1-.77,4.82q-1.17,5-2.19,6.49a2.13,2.13,0,0,1-1.42.79,1.73,1.73,0,0,1-1.48-.84,5.64,5.64,0,0,1-.84-1.85c-.09-.15-.09-.26,0-.34.08-.37.41-1.6,1-3.69a20.68,20.68,0,0,0,.83-4.37v-.11Q377,53.8,370.09,66.9q-3.48,6.61-6.32,13.27a49.78,49.78,0,0,0-3.48,10.58.65.65,0,0,1-.38.56.57.57,0,0,1-.39.11A.82.82,0,0,1,359,91.31Z"/><path class="cls-5" d="M382.84,114.27a3.24,3.24,0,0,1-1.41-2.8,16.31,16.31,0,0,1,.25-2,18.59,18.59,0,0,1,5.54-9.36A115.42,115.42,0,0,1,399,90.31c.69-.45,1.4-1,2.13-1.52s1.22-1,1.48-1.17A5.73,5.73,0,0,0,400,86.44c-1.28-.33-3.09-.73-5.41-1.17a29.87,29.87,0,0,1-6.19-1.35c-2.74-1-4.12-2.65-4.12-5a13,13,0,0,1,1-4.48q.65-2.12,5-8.68t5.87-8.34c.51-.6.77-1,.77-1.12H397a76.47,76.47,0,0,1,6.19-5.82,8.5,8.5,0,0,1,5.28-2.35,4.21,4.21,0,0,1,2.06.56,7,7,0,0,1,2.51,2.07A4,4,0,0,1,413.9,53a2.54,2.54,0,0,1-.71,1.85,2.46,2.46,0,0,1-1.86.73q-2.46.33-6.84,4.76A63.94,63.94,0,0,0,396.63,70q-3.48,5.28-3.48,7.84a1.3,1.3,0,0,0,1,1.46q9.79,2,11.47,3.36l1.81,1.46q4.13-3.48,7.09-6.5l3.6-3.69c1-1,1.76-1.8,2.45-2.47s1.16-1,1.42-1,.52.19.52.56-1,1.74-2.84,4.09-5.28,6.33-10.18,11.93c.09,0,.26.5.52,1.51a14.74,14.74,0,0,1,.38,3.53,18.6,18.6,0,0,1-4.25,12.15,31.91,31.91,0,0,1-9.73,8.12q-5.47,2.91-8.57,2.91C385.46,115.28,383.79,114.94,382.84,114.27Zm11.22-6.94a30.16,30.16,0,0,0,6.95-6.16q4.77-5.39,4.77-8.4a2,2,0,0,0-1-1.9q-6.83,5.82-12.63,11.31A25.62,25.62,0,0,0,389,106a9.17,9.17,0,0,0-1.62,3.19c0,.45.3.67.91.67Q390.06,109.9,394.06,107.33Z"/><path class="cls-5" d="M449.21,98.15l-1.28-.73a7,7,0,0,1-2.2-2,5.65,5.65,0,0,1-.25-1.91c0-1.57.3-5.33.9-11.31q.76-6.94,3.35-25.31a13.69,13.69,0,0,0-2.19.11H447a2.89,2.89,0,0,1-2.32-.78,2.4,2.4,0,0,1-.77-1.9,4.52,4.52,0,0,1,.77-2.52,2.27,2.27,0,0,1,1.94-1.18,1.73,1.73,0,0,1,1.16.45c.08,0,1,.11,2.83.33q2.06-13.77,3.22-19a21.73,21.73,0,0,0-4.51.33l-.38.11a5.06,5.06,0,0,1-2.58-1.23l-.9-.72a1.89,1.89,0,0,1-.78-1.52,1.23,1.23,0,0,1,.52-.89,2.81,2.81,0,0,1,1.55-.34l.9.11h.38L453,28l1.93-.23c.6-1.93,1-3.09,1.16-3.47l.13-.11,2.58-2.35c2-1.64,3.31-2.46,4-2.46a1,1,0,0,1,.65.22,1,1,0,0,1,.26.78l-1.16,6-.26,1q4.89-.23,6.83-.22,13.14,0,17.91,2.79a2.23,2.23,0,0,1,1.16,1.18,4.09,4.09,0,0,1,.39,1.74,3.53,3.53,0,0,1-.26,1.23A1.24,1.24,0,0,1,487,35.32a2.39,2.39,0,0,1-1.67-1.12c-.69-.6-2.86-1.08-6.51-1.46s-8.4-.56-14.24-.56h-3.22q-.78,4-1,5.49-1.68,8.4-2.71,14.33l5.48.62c2.88.34,5.17.69,6.89,1.06a1.27,1.27,0,0,1,.65,1c0,.6-.52,1.2-1.55,1.79h-.26q-1.16.12-4.38.12c-2.84,0-5.41.11-7.73.33q-4.12,24.87-4.13,36.62c0,1.72.05,3,.13,3.7v.22l-.26.23a3.46,3.46,0,0,1-1.93.45Z"/><path class="cls-5" d="M471.89,91.31A10.55,10.55,0,0,1,469.83,90a4.84,4.84,0,0,1-1.67-2v-.33a1.8,1.8,0,0,1,.25-.9c.26-1.19.69-3.36,1.29-6.49s1.25-7,1.94-11.65q2.44-16.35,2.45-21.61c0-1.2.38-1.8,1.16-1.8a2,2,0,0,1,1.54.79,11.2,11.2,0,0,1,1.87,2.46,4.33,4.33,0,0,1,.71,2.58l-2.32,17a124.79,124.79,0,0,1,8.51-15.34q4.38-6.27,7.6-6.28a2.89,2.89,0,0,1,2.06.57,11.71,11.71,0,0,1,1.93,1.9,3.13,3.13,0,0,1,.39,1.9,20.9,20.9,0,0,1-.77,4.82q-1.17,5-2.19,6.49a2.13,2.13,0,0,1-1.42.79,1.73,1.73,0,0,1-1.48-.84,5.64,5.64,0,0,1-.84-1.85c-.09-.15-.09-.26,0-.34.08-.37.41-1.6,1-3.69a20.68,20.68,0,0,0,.83-4.37v-.11Q489.94,53.8,483,66.9q-3.48,6.61-6.32,13.27a49.78,49.78,0,0,0-3.48,10.58.65.65,0,0,1-.38.56.57.57,0,0,1-.39.11A.82.82,0,0,1,471.89,91.31Z"/><path class="cls-5" d="M498.7,89q-2.44-2.42-2.45-8.79a36.8,36.8,0,0,1,3.61-15.85,47.53,47.53,0,0,1,8.31-12.6q4.71-4.92,7.16-4.93t4.7,2.69a8,8,0,0,1,2.38,5.26q0,2-2.32,7.68A39,39,0,0,1,514,72.72q-3.8,4.61-8.31,4.6a5.75,5.75,0,0,1-2.32-.45,19.16,19.16,0,0,1-.32,2.4,20.13,20.13,0,0,0-.32,3.53c0,2.39.47,3.85,1.41,4.37h.26q1.68-.11,5.22-3.53c2.36-2.27,5.22-5.32,8.57-9.12s5.33-5.72,5.67-5.72a1.52,1.52,0,0,1,1,.34,1.11,1.11,0,0,1,.39.89q0,.57-4.45,6.28a93.61,93.61,0,0,1-9.4,10.41q-5,4.71-7.93,4.7A7,7,0,0,1,498.7,89Zm6.44-17.42a8.7,8.7,0,0,0,4.26-2.35A18.69,18.69,0,0,0,513.78,63a24.06,24.06,0,0,0,2.06-9.74L512,56.82q-3.67,3.47-7.41,14.9Z"/><path class="cls-5" d="M527.7,89c-1.64-1.61-2.45-4.54-2.45-8.79a36.8,36.8,0,0,1,3.61-15.85,47,47,0,0,1,8.31-12.6q4.7-4.92,7.15-4.93c1.55,0,3.11.9,4.71,2.69a8.1,8.1,0,0,1,2.38,5.26q0,2-2.32,7.68A39.58,39.58,0,0,1,543,72.72q-3.81,4.61-8.32,4.6a5.75,5.75,0,0,1-2.32-.45,17.34,17.34,0,0,1-.32,2.4,21.14,21.14,0,0,0-.32,3.53c0,2.39.47,3.85,1.42,4.37h.26q1.67-.11,5.22-3.53c2.36-2.27,5.21-5.32,8.57-9.12s5.32-5.72,5.67-5.72a1.54,1.54,0,0,1,1,.34,1.1,1.1,0,0,1,.38.89q0,.57-4.44,6.28a93.68,93.68,0,0,1-9.41,10.41q-5,4.71-7.92,4.7A7,7,0,0,1,527.7,89Zm6.44-17.42a8.68,8.68,0,0,0,4.25-2.35A18.69,18.69,0,0,0,542.77,63a24.22,24.22,0,0,0,2.07-9.74c-.09.07-1.36,1.27-3.81,3.58s-4.92,7.28-7.41,14.9Z"/><path class="cls-4" d="M31.88,37H24.59a1,1,0,0,1-1-1V18a1.45,1.45,0,0,0-1.45-1.45H1.45A1.45,1.45,0,0,0,0,18V38.76a1.45,1.45,0,0,0,1.45,1.45H19.3a1,1,0,0,1,1,1v7.44a1.45,1.45,0,0,0,1.45,1.46H31.88a1.45,1.45,0,0,0,1.45-1.46V38.46A1.45,1.45,0,0,0,31.88,37Z"/><rect class="cls-4" x="28.16" y="22.98" width="10.35" height="10.35" rx="1.45"/><path class="cls-4" d="M184.17,107,170.06,93.77a3.66,3.66,0,0,0-2.54-1h-140a3.69,3.69,0,0,0-2.54,1L10.86,107c-2.92,2.74-1.23,8.18,2.54,8.18H181.64C185.41,115.21,187.09,109.77,184.17,107ZM39.65,112.5H33.42a.71.71,0,0,1,0-1.42h6.23a.71.71,0,1,1,0,1.42Zm3.48.24a1,1,0,1,1,.95-.95A1,1,0,0,1,43.13,112.74Zm2.78,0a1,1,0,1,1,1-.95A1,1,0,0,1,45.91,112.74ZM117,110.45l-39.83,0A1.26,1.26,0,0,1,76,108.74l.32-.77.74-1.83a1.25,1.25,0,0,1,1.16-.79l37.28,0a1.26,1.26,0,0,1,1.08.62l1.49,2.57A1.25,1.25,0,0,1,117,110.45Zm-96-8.06a.48.48,0,0,1-.33-.83l6.19-5.8a1.15,1.15,0,0,1,.79-.31h110l4.66,7.07Zm152.22.2-27.66-.07-4.89-7.08h25.73a3.5,3.5,0,0,1,2.37.93l5.07,4.64A.91.91,0,0,1,173.21,102.59Z"/><path class="cls-4" d="M77.91,108c3.14-.21,6.27-.3,9.41-.38s6.27-.11,9.41-.12,6.27,0,9.4.11l4.71.14c1.57.09,3.13.14,4.7.25-1.57.11-3.13.16-4.7.24l-4.71.14c-3.13.09-6.27.11-9.4.12s-6.28,0-9.41-.12S81.05,108.22,77.91,108Z"/><line class="cls-6" x1="96.63" y1="108.02" x2="96.63" y2="110.47"/><path class="cls-4" d="M35.26,8.71H159.51V15.8H169V4a4,4,0,0,0-4-4H30.09a4,4,0,0,0-4,4V16.94h9.18Z"/><rect class="cls-4" x="159.51" y="48.8" width="9.45" height="17.27"/><path class="cls-4" d="M157.39,82.47V82H35.26V52H26.08V87a4,4,0,0,0,4,4H165a4,4,0,0,0,4-4V82.47Z"/><path class="cls-3" d="M152.65,83.94V66.19a2.53,2.53,0,0,0-1.79,2.4V84.34a2.52,2.52,0,0,0,2.52,2.53h18.84a2.53,2.53,0,0,0,2.53-2.53v-.4Z"/><path class="cls-4" d="M173.17,64.66H154.33a2.53,2.53,0,0,0-2.53,2.53V82.94a2.52,2.52,0,0,0,2.53,2.52h18.84a2.52,2.52,0,0,0,2.52-2.52V67.19A2.52,2.52,0,0,0,173.17,64.66Zm-4.28,15.4a1.47,1.47,0,0,1-1.46,1.46h-7.36a1.46,1.46,0,0,1-1.46-1.46V74.29a1.46,1.46,0,0,1,1.46-1.46h.34v-1a3.24,3.24,0,0,1,3.24-3.24h.2a3.24,3.24,0,0,1,3.24,3.24v1h.34a1.46,1.46,0,0,1,1.46,1.46Z"/><path class="cls-4" d="M165.17,77.11A1.42,1.42,0,1,0,163,78.3v1.16h1.56V78.3A1.44,1.44,0,0,0,165.17,77.11Z"/><g class="cls-7"><circle class="cls-4" cx="163.75" cy="72.09" r="2.4"/></g></g></g></g></svg>